<svg width="7" height="7" viewBox="0 0 7 7" fill="none" xmlns="http://www.w3.org/2000/svg">
<path d="M5.96182 0.146388C6.157 -0.0487971 6.47357 -0.0486428 6.66885 0.146388C6.86411 0.34165 6.86411 0.658157 6.66885 0.853419L4.11416 3.40713L6.66885 5.96182C6.86411 6.15708 6.86411 6.47359 6.66885 6.66885C6.47359 6.86411 6.15708 6.86411 5.96182 6.66885L3.40713 4.11416L0.853419 6.66885C0.658157 6.86411 0.34165 6.86411 0.146388 6.66885C-0.0486428 6.47357 -0.0487971 6.157 0.146388 5.96182L2.7001 3.40713L0.146388 0.853419C-0.0487568 0.658148 -0.0488351 0.341611 0.146388 0.146388C0.341611 -0.0488351 0.658148 -0.0487568 0.853419 0.146388L3.40713 2.7001L5.96182 0.146388Z" fill="#D9D9D9"/>
</svg>
