<svg width="9" height="14" viewBox="0 0 9 14" fill="none" xmlns="http://www.w3.org/2000/svg">
<path d="M4.8623 0.97023C5.32468 1.01673 5.75903 1.22391 6.08789 1.55812L8.42578 3.9341C8.7937 4.30817 9 4.81175 9 5.33644V11.1558L8.98926 11.3599C8.89382 12.3014 8.14566 13.0496 7.2041 13.145L7 13.1558H2L1.7959 13.145C0.854336 13.0496 0.106184 12.3014 0.0107422 11.3599L0 11.1558V2.96046C6.81661e-07 1.92481 0.787223 1.07347 1.7959 0.971207L2 0.960464H4.66211L4.8623 0.97023ZM2 1.76027C1.33726 1.76027 0.799805 2.29772 0.799805 2.96046V11.1558C0.799805 11.8185 1.33726 12.356 2 12.356H7C7.66274 12.356 8.2002 11.8185 8.2002 11.1558V5.63527H5C4.44772 5.63527 4 5.18755 4 4.63527V1.76027H2ZM4.7998 4.63527L4.80371 4.67531C4.82223 4.76661 4.90323 4.83546 5 4.83546H8.08984C8.04846 4.74552 7.99642 4.66033 7.93359 4.58253L7.85547 4.49464L5.51758 2.11867C5.32444 1.92239 5.07067 1.79937 4.7998 1.76808V4.63527Z" fill="#D0D4E1"/>
<line x1="2" y1="7.67442" x2="7" y2="7.67442" stroke="#D0D4E1" stroke-width="0.8"/>
<mask id="path-3-inside-1_1_265" fill="white">
<rect x="2" y="9.0907" width="5" height="2.03256" rx="0.5"/>
</mask>
<rect x="2" y="9.0907" width="5" height="2.03256" rx="0.5" stroke="#D0D4E1" stroke-width="1.6" mask="url(#path-3-inside-1_1_265)"/>
</svg>
