<svg style="cursor: pointer;" width="12" height="12" viewBox="0 0 12 12" fill="none" xmlns="http://www.w3.org/2000/svg">
<circle cx="6" cy="6" r="5.5" stroke="#707586"/>
<path d="M4.244 3.704C4.34267 3.62133 4.44933 3.544 4.564 3.472C4.68133 3.4 4.80667 3.33733 4.94 3.284C5.07333 3.228 5.216 3.18533 5.368 3.156C5.52267 3.124 5.68933 3.108 5.868 3.108C6.11867 3.108 6.344 3.14133 6.544 3.208C6.74667 3.27467 6.91867 3.37067 7.06 3.496C7.20133 3.61867 7.30933 3.768 7.384 3.944C7.46133 4.11733 7.5 4.31067 7.5 4.524C7.5 4.72667 7.472 4.90267 7.416 5.052C7.36 5.19867 7.28933 5.32667 7.204 5.436C7.11867 5.54533 7.024 5.64 6.92 5.72C6.81867 5.8 6.72133 5.87467 6.628 5.944C6.53733 6.01067 6.45733 6.07733 6.388 6.144C6.32133 6.21067 6.27867 6.28533 6.26 6.368L6.148 6.928H5.3L5.212 6.284C5.19067 6.15333 5.204 6.04 5.252 5.944C5.3 5.84533 5.36533 5.75733 5.448 5.68C5.53333 5.6 5.628 5.52533 5.732 5.456C5.836 5.384 5.93333 5.308 6.024 5.228C6.11467 5.14533 6.19067 5.05467 6.252 4.956C6.316 4.85467 6.348 4.73467 6.348 4.596C6.348 4.436 6.29467 4.30933 6.188 4.216C6.084 4.12 5.94 4.072 5.756 4.072C5.61467 4.072 5.496 4.08667 5.4 4.116C5.30667 4.14533 5.22533 4.17867 5.156 4.216C5.08933 4.25067 5.03067 4.28267 4.98 4.312C4.92933 4.34133 4.87867 4.356 4.828 4.356C4.71333 4.356 4.628 4.30667 4.572 4.208L4.244 3.704ZM4.98 8.372C4.98 8.276 4.99733 8.18667 5.032 8.104C5.06933 8.02133 5.11867 7.94933 5.18 7.888C5.244 7.82667 5.31867 7.77867 5.404 7.744C5.48933 7.70667 5.58267 7.688 5.684 7.688C5.78267 7.688 5.87467 7.70667 5.96 7.744C6.04533 7.77867 6.12 7.82667 6.184 7.888C6.248 7.94933 6.29733 8.02133 6.332 8.104C6.36933 8.18667 6.388 8.276 6.388 8.372C6.388 8.468 6.36933 8.55867 6.332 8.644C6.29733 8.72667 6.248 8.79867 6.184 8.86C6.12 8.92133 6.04533 8.96933 5.96 9.004C5.87467 9.03867 5.78267 9.056 5.684 9.056C5.58267 9.056 5.48933 9.03867 5.404 9.004C5.31867 8.96933 5.244 8.92133 5.18 8.86C5.11867 8.79867 5.06933 8.72667 5.032 8.644C4.99733 8.55867 4.98 8.468 4.98 8.372Z" fill="#707586"/>
</svg>
