<svg width="11" height="13" viewBox="0 0 11 13" fill="none" xmlns="http://www.w3.org/2000/svg">
<rect x="0.4" y="1.37675" width="10.2" height="8.34651" rx="1.6" stroke="#D0D4E1" stroke-width="0.8"/>
<path d="M6.28055 9.83814L6 9.55303L5.4389 10.1233L5.71945 10.4084L6.28055 9.83814ZM7.71945 12.4409C7.87439 12.5984 8.12561 12.5984 8.28055 12.4409C8.43549 12.2835 8.43549 12.0282 8.28055 11.8707L7.71945 12.4409ZM6 10.1233L5.71945 10.4084L7.71945 12.4409L8 12.1558L8.28055 11.8707L6.28055 9.83814L6 10.1233Z" fill="#D0D4E1"/>
<path d="M4.71945 9.83814L5 9.55303L5.5611 10.1233L5.28055 10.4084L4.71945 9.83814ZM3.28055 12.4409C3.12561 12.5984 2.87439 12.5984 2.71945 12.4409C2.56451 12.2835 2.56451 12.0282 2.71945 11.8707L3.28055 12.4409ZM5 10.1233L5.28055 10.4084L3.28055 12.4409L3 12.1558L2.71945 11.8707L4.71945 9.83814L5 10.1233Z" fill="#D0D4E1"/>
</svg>
