<svg width="31" height="39" viewBox="0 0 31 39" fill="none" xmlns="http://www.w3.org/2000/svg">
<path d="M0 6C0 2.68629 2.68629 0 6 0H22.515C24.1063 0 25.6325 0.632189 26.7577 1.75748L29.2428 4.24266C30.3679 5.36787 31 6.89394 31 8.48518V33C31 36.3137 28.3137 39 25 39H6C2.68629 39 0 36.3137 0 33V6Z" fill="#D9D9D9"/>
<mask id="path-2-inside-1_20_85" fill="white">
<path d="M22.0004 1H30.0004V9H26.0004C23.7912 9 22.0004 7.20914 22.0004 5V1Z"/>
</mask>
<path d="M22.0004 1H30.0004H22.0004ZM30.0004 10H26.0004C23.2389 10 21.0004 7.76142 21.0004 5H23.0004C23.0004 6.65685 24.3435 8 26.0004 8H30.0004V10ZM26.0004 10C23.2389 10 21.0004 7.76142 21.0004 5V1H23.0004V5C23.0004 6.65685 24.3435 8 26.0004 8V10ZM30.0004 1V9V1Z" fill="#5D5D5D" mask="url(#path-2-inside-1_20_85)"/>
<path d="M15.7458 18V23.495" stroke="#5D5D5D" stroke-linecap="round"/>
<path d="M18.4954 20.7454L13.0004 20.7454" stroke="#5D5D5D" stroke-linecap="round"/>
</svg>
