<svg width="99" height="29" viewBox="0 0 99 29" fill="none" xmlns="http://www.w3.org/2000/svg">
<rect x="35" width="29" height="29" rx="6" fill="#8BADFB"/>
<line x1="42.25" y1="7.55556" x2="56.75" y2="7.55556" stroke="#5D5D5D"/>
<line x1="42.25" y1="22.0556" x2="50.3056" y2="22.0556" stroke="#5D5D5D"/>
<line x1="42.25" y1="12.3889" x2="56.75" y2="12.3889" stroke="#5D5D5D"/>
<line x1="42.25" y1="17.2222" x2="56.75" y2="17.2222" stroke="#5D5D5D"/>
<rect x="70" width="29" height="29" rx="6" fill="#D5BE94"/>
<rect x="73.7222" y="8.55556" width="21.5556" height="11.0833" rx="1.5" fill="#F0F0F0" stroke="#5D5D5D"/>
<rect width="29" height="29" rx="6" fill="#51A68E"/>
<mask id="path-9-inside-1_101_40" fill="white">
<path d="M10.8747 2.41667C11.9792 2.41667 12.8893 3.3121 12.8893 4.41667V10.4723H24.5837C25.688 10.4725 26.5836 11.3816 26.5837 12.486C26.5837 13.5905 25.6881 14.4995 24.5837 14.4997H12.8893V24.5837C12.8891 25.6881 11.9791 26.5837 10.8747 26.5837C9.77037 26.5835 8.86119 25.688 8.86101 24.5837V14.4997H4.41667C3.3121 14.4997 2.41667 13.5906 2.41667 12.486C2.41673 11.3815 3.31214 10.4723 4.41667 10.4723H8.86101V4.41667C8.86101 3.31221 9.77025 2.41684 10.8747 2.41667Z"/>
</mask>
<path d="M10.8747 2.41667C11.9792 2.41667 12.8893 3.3121 12.8893 4.41667V10.4723H24.5837C25.688 10.4725 26.5836 11.3816 26.5837 12.486C26.5837 13.5905 25.6881 14.4995 24.5837 14.4997H12.8893V24.5837C12.8891 25.6881 11.9791 26.5837 10.8747 26.5837C9.77037 26.5835 8.86119 25.688 8.86101 24.5837V14.4997H4.41667C3.3121 14.4997 2.41667 13.5906 2.41667 12.486C2.41673 11.3815 3.31214 10.4723 4.41667 10.4723H8.86101V4.41667C8.86101 3.31221 9.77025 2.41684 10.8747 2.41667Z" fill="#F0F0F0"/>
<path d="M10.8747 2.41667V1.41667H10.8745L10.8747 2.41667ZM12.8893 10.4723H11.8893V11.4723H12.8893V10.4723ZM24.5837 10.4723L24.5838 9.47234H24.5837V10.4723ZM26.5837 12.486H27.5837V12.486L26.5837 12.486ZM24.5837 14.4997V15.4997H24.5838L24.5837 14.4997ZM12.8893 14.4997V13.4997H11.8893V14.4997H12.8893ZM12.8893 24.5837L13.8893 24.5838V24.5837H12.8893ZM10.8747 26.5837L10.8745 27.5837H10.8747V26.5837ZM8.86101 24.5837H7.86101V24.5838L8.86101 24.5837ZM8.86101 14.4997H9.86101V13.4997H8.86101V14.4997ZM4.41667 14.4997V15.4997V14.4997ZM2.41667 12.486L1.41667 12.486V12.486H2.41667ZM4.41667 10.4723V11.4723V10.4723ZM8.86101 10.4723V11.4723H9.86101V10.4723H8.86101ZM10.8747 2.41667V3.41667C11.4365 3.41667 11.8893 3.87385 11.8893 4.41667H12.8893H13.8893C13.8893 2.75035 12.522 1.41667 10.8747 1.41667V2.41667ZM12.8893 4.41667H11.8893V10.4723H12.8893H13.8893V4.41667H12.8893ZM12.8893 10.4723V11.4723H24.5837V10.4723V9.47234H12.8893V10.4723ZM24.5837 10.4723L24.5835 11.4723C25.127 11.4724 25.5836 11.9251 25.5837 12.4861L26.5837 12.486L27.5837 12.486C27.5836 10.8381 26.2491 9.47261 24.5838 9.47234L24.5837 10.4723ZM26.5837 12.486H25.5837C25.5837 13.0469 25.1271 13.4996 24.5835 13.4997L24.5837 14.4997L24.5838 15.4997C26.2491 15.4994 27.5837 14.134 27.5837 12.486H26.5837ZM24.5837 14.4997V13.4997H12.8893V14.4997V15.4997H24.5837V14.4997ZM12.8893 14.4997H11.8893V24.5837H12.8893H13.8893V14.4997H12.8893ZM12.8893 24.5837L11.8893 24.5835C11.8892 25.1265 11.4362 25.5837 10.8747 25.5837V26.5837V27.5837C12.5221 27.5837 13.8891 26.2497 13.8893 24.5838L12.8893 24.5837ZM10.8747 26.5837L10.8748 25.5837C10.3138 25.5836 9.8611 25.1268 9.86101 24.5835L8.86101 24.5837L7.86101 24.5838C7.86128 26.2491 9.22692 27.5834 10.8745 27.5837L10.8747 26.5837ZM8.86101 24.5837H9.86101V14.4997H8.86101H7.86101V24.5837H8.86101ZM8.86101 14.4997V13.4997H4.41667V14.4997V15.4997H8.86101V14.4997ZM4.41667 14.4997V13.4997C3.87323 13.4997 3.41667 13.0472 3.41667 12.486H2.41667H1.41667C1.41667 14.134 2.75098 15.4997 4.41667 15.4997V14.4997ZM2.41667 12.486L3.41667 12.4861C3.4167 11.9248 3.87331 11.4723 4.41667 11.4723V10.4723V9.47234C2.75096 9.47234 1.41675 10.8381 1.41667 12.486L2.41667 12.486ZM4.41667 10.4723V11.4723H8.86101V10.4723V9.47234H4.41667V10.4723ZM8.86101 10.4723H9.86101V4.41667H8.86101H7.86101V10.4723H8.86101ZM8.86101 4.41667H9.86101C9.86101 3.87349 10.3135 3.41676 10.8748 3.41667L10.8747 2.41667L10.8745 1.41667C9.22697 1.41693 7.86101 2.75093 7.86101 4.41667H8.86101Z" fill="#5D5D5D" mask="url(#path-9-inside-1_101_40)"/>
</svg>
